<svg width="32" height="32" viewBox="0 0 32 32" fill="none" xmlns="http://www.w3.org/2000/svg">
  <path d="M16 2C8.5 2 2.5 8 2.5 15.5C2.5 18.5 3.5 21.2 5 23.2C5.5 23.8 6 24.3 6.5 24.7C7 25.1 7.5 25.4 8 25.6C8.5 25.8 9 25.9 9.5 25.9C10 25.9 10.5 25.8 11 25.6C11.5 25.4 12 25.1 12.5 24.7C13 24.3 13.5 23.8 14 23.2C15.5 21.2 16.5 18.5 16.5 15.5C16.5 8 10.5 2 16 2Z" fill="#d87b3a"/>
  <path d="M16 2C23.5 2 29.5 8 29.5 15.5C29.5 18.5 28.5 21.2 27 23.2C26.5 23.8 26 24.3 25.5 24.7C25 25.1 24.5 25.4 24 25.6C23.5 25.8 23 25.9 22.5 25.9C22 25.9 21.5 25.8 21 25.6C20.5 25.4 20 25.1 19.5 24.7C19 24.3 18.5 23.8 18 23.2C16.5 21.2 15.5 18.5 15.5 15.5C15.5 8 8.5 2 16 2Z" fill="#d87b3a"/>
  <path d="M16 4C12 4 8.5 7.5 8.5 11.5C8.5 13.5 9.5 15.2 11 16.2C11.5 16.6 12 16.9 12.5 17.1C13 17.3 13.5 17.4 14 17.4C14.5 17.4 15 17.3 15.5 17.1C16 16.9 16.5 16.6 17 16.2C18.5 15.2 19.5 13.5 19.5 11.5C19.5 7.5 20 4 16 4Z" fill="white"/>
  <path d="M16 4C20 4 23.5 7.5 23.5 11.5C23.5 13.5 22.5 15.2 21 16.2C20.5 16.6 20 16.9 19.5 17.1C19 17.3 18.5 17.4 18 17.4C17.5 17.4 17 17.3 16.5 17.1C16 16.9 15.5 16.6 15 16.2C13.5 15.2 12.5 13.5 12.5 11.5C12.5 7.5 12 4 16 4Z" fill="white"/>
  <circle cx="14" cy="10" r="1" fill="#d87b3a"/>
  <circle cx="18" cy="10" r="1" fill="#d87b3a"/>
  <path d="M15 13C15 13.5 15.5 14 16 14C16.5 14 17 13.5 17 13C17 12.5 16.5 12 16 12C15.5 12 15 12.5 15 13Z" fill="#d87b3a"/>
</svg>
